#N canvas 681 121 450 300 10;
#X obj 31 39 inlet~;
#X obj 32 244 outlet~;
#X obj 33 73 delwrite~ \$0-del 500;
#X obj 211 35 inlet;
#X floatatom 212 74 5 0 0 0 - - -;
#X obj 31 180 delread~ \$0-del \$1;
#X connect 0 0 2 0;
#X connect 3 0 4 0;
#X connect 4 0 5 0;
#X connect 5 0 1 0;
