#N canvas 654 139 202 315 10;
#X obj 41 24 inlet~;
#X obj 40 266 outlet~;
#X obj 40 220 clip~ -0.5 0.5;
#X obj 40 174 *~;
#X obj 93 149 line~;
#X msg 92 123 \$1 20;
#X obj 91 23 inlet;
#X floatatom 91 68 5 0 0 0 - - -;
#X obj 92 89 + 1;
#X connect 0 0 3 0;
#X connect 2 0 1 0;
#X connect 3 0 2 0;
#X connect 4 0 3 1;
#X connect 5 0 4 0;
#X connect 6 0 7 0;
#X connect 7 0 8 0;
#X connect 8 0 5 0;
