#N canvas 149 46 1008 694 10;
#X obj 210 36 p/detail_params;
#X obj 39 31 cnv 15 60 60 empty empty UDje-Electronics 20 12 0 14 -261682
-258113 0;
#X obj 722 419 p/audio;
#X obj 720 325 p/taptempo;
#X obj 843 352 p/audioTest;
#X obj 211 63 p/log;
#X obj 503 200 p/ctl/tenkey;
#X obj 56 60 adc~;
#X obj 131 151 p/miniscope;
#X obj 23 113 *~ 1;
#X floatatom 111 64 5 0 0 0 - - -;
#X obj 203 184 tabplay~ test;
#X obj 203 156 bng 15 250 50 0 empty empty empty 17 7 0 10 -262144
-1 -1;
#X msg 225 155 stop;
#X obj 19 155 p/fx/eq;
#X obj 21 648 throw~ outL;
#X obj 96 649 throw~ outR;
#X obj 18 246 clip~ -1 1;
#X obj 175 315 p/fx/myFlanger;
#X obj 22 603 p/dry_wet;
#X obj 301 317 p/fx/myTremoro;
#X obj 293 162 p/miniscope;
#X obj 436 318 p/fx/myModTremoro;
#X obj 44 314 p/fx/myVibrate;
#X obj 565 319 p/fx/myVibrate2;
#N canvas 40 46 648 480 mapping_parameters 0;
#X obj 28 35 inlet;
#X obj 28 75 route tenkey lpd8;
#X obj 33 415 outlet;
#X obj 267 235 route 0 1 2 3 4 5 6 7;
#X obj 77 415 outlet;
#X obj 121 415 outlet;
#X obj 165 415 outlet;
#X obj 209 415 outlet;
#X obj 253 415 outlet;
#X obj 297 415 outlet;
#X obj 341 415 outlet;
#X obj 43 218 route 0 1 2 3 4 5 6 7;
#X connect 0 0 1 0;
#X connect 1 0 11 0;
#X connect 1 1 3 0;
#X connect 3 0 2 0;
#X connect 3 1 4 0;
#X connect 3 2 5 0;
#X connect 3 3 6 0;
#X connect 3 4 7 0;
#X connect 3 5 8 0;
#X connect 3 6 9 0;
#X connect 3 7 10 0;
#X connect 11 0 2 0;
#X connect 11 1 4 0;
#X connect 11 2 5 0;
#X connect 11 3 6 0;
#X connect 11 4 7 0;
#X connect 11 5 8 0;
#X connect 11 6 9 0;
#X connect 11 7 10 0;
#X restore 504 230 pd mapping_parameters;
#X obj 500 180 tgl 15 0 empty empty empty 17 7 0 10 -262144 -1 -1 1
1;
#N canvas 728 206 450 300 temp 0;
#N canvas 0 22 450 278 (subpatch) 0;
#X array test 2.76084e+06 float 0;
#X coords 0 1 2.76084e+06 -1 200 40 1 0 0;
#X restore 31 28 graph;
#X obj 31 155 soundfiler;
#X msg 31 104 read -resize /Users/tatsuyaogusu/Music/GarageBand/Export/OffBroadway.aif
test;
#X obj 25 81 loadbang;
#X connect 2 0 1 0;
#X connect 3 0 2 0;
#X restore 274 63 pd temp;
#X connect 6 0 25 0;
#X connect 7 0 9 0;
#X connect 9 0 14 0;
#X connect 9 0 8 0;
#X connect 10 0 9 1;
#X connect 11 0 17 0;
#X connect 11 0 21 0;
#X connect 11 1 12 0;
#X connect 12 0 11 0;
#X connect 13 0 11 0;
#X connect 14 0 17 0;
#X connect 17 0 18 0;
#X connect 17 0 19 0;
#X connect 17 0 20 0;
#X connect 17 0 22 0;
#X connect 17 0 23 0;
#X connect 17 0 24 0;
#X connect 18 0 19 1;
#X connect 18 1 19 2;
#X connect 19 0 15 0;
#X connect 19 1 16 0;
#X connect 20 0 19 1;
#X connect 20 1 19 2;
#X connect 22 0 19 1;
#X connect 22 1 19 2;
#X connect 23 0 19 1;
#X connect 23 1 19 2;
#X connect 24 0 19 1;
#X connect 24 1 19 2;
#X connect 25 0 23 1;
#X connect 25 1 18 1;
#X connect 25 2 20 1;
#X connect 25 3 22 1;
#X connect 25 4 24 1;
#X connect 26 0 6 0;
