#N canvas 703 66 881 753 10;
#X declare -path include;
#X declare -path include/fx;
#X declare -path include/ctl;
#X declare -path include/fx/fxunit;
#X obj 39 31 cnv 15 60 60 empty empty UDje-Electronics 20 12 0 14 -261682
-258113 0;
#X obj 53 60 adc~;
#X obj 53 152 *~ 1;
#X obj 227 60 tabplay~ test;
#X obj 227 32 bng 15 250 50 0 empty empty empty 17 7 0 10 -262144 -1
-1;
#X msg 249 31 stop;
#X obj 21 360 clip~ -1 1;
#N canvas 40 46 648 480 mapping_parameters 0;
#X obj 28 35 inlet;
#X obj 28 75 route tenkey lpd8;
#X obj 33 415 outlet;
#X obj 267 235 route 0 1 2 3 4 5 6 7;
#X obj 77 415 outlet;
#X obj 121 415 outlet;
#X obj 165 415 outlet;
#X obj 209 415 outlet;
#X obj 253 415 outlet;
#X obj 297 415 outlet;
#X obj 341 415 outlet;
#X obj 43 218 route 0 1 2 3 4 5 6 7;
#X connect 0 0 1 0;
#X connect 1 0 11 0;
#X connect 1 1 3 0;
#X connect 3 0 2 0;
#X connect 3 1 4 0;
#X connect 3 2 5 0;
#X connect 3 3 6 0;
#X connect 3 4 7 0;
#X connect 3 5 8 0;
#X connect 3 6 9 0;
#X connect 3 7 10 0;
#X connect 11 0 2 0;
#X connect 11 1 4 0;
#X connect 11 2 5 0;
#X connect 11 3 6 0;
#X connect 11 4 7 0;
#X connect 11 5 8 0;
#X connect 11 6 9 0;
#X connect 11 7 10 0;
#X restore 401 639 pd mapping_parameters;
#X obj 397 516 tgl 15 0 empty empty empty 17 7 0 10 -262144 -1 -1 0
1;
#N canvas 728 206 450 300 temp 0;
#N canvas 0 22 450 278 (subpatch) 0;
#X array test 2.76084e+06 float 0;
#X coords 0 1 2.76084e+06 -1 200 40 1 0 0;
#X restore 31 28 graph;
#X obj 31 155 soundfiler;
#X msg 31 104 read -resize /Users/tatsuyaogusu/Music/GarageBand/Export/OffBroadway.aif
test;
#X obj 25 81 loadbang;
#X connect 2 0 1 0;
#X connect 3 0 2 0;
#X restore 615 635 pd temp;
#N canvas 591 62 1280 752 FXset 0;
#X obj 52 32 inlet~;
#X obj 55 487 outlet~;
#X obj 110 490 outlet~;
#X obj 48 167 myVibrate;
#X obj 215 168 myFlanger;
#X obj 341 170 myTremoro;
#X obj 476 171 myModTremoro;
#X restore 44 431 pd FXset;
#X obj 179 425 hsl 128 15 0 127 0 0 fx_x empty FX_Param_X -2 -8 0 10
-262144 -1 -1 0 1;
#X obj 323 426 hsl 128 15 0 127 0 0 fx_y empty FX_Param_Y -2 -8 0 10
-262144 -1 -1 0 1;
#X obj 404 30 declare -path include;
#X obj 563 607 detail_params;
#X obj 564 634 logger;
#X obj 404 53 declare -path include/fx;
#X obj 404 95 declare -path include/ctl;
#X obj 404 73 declare -path include/fx/fxunit;
#X obj 398 551 tenkey;
#X obj 469 475 LPD8;
#X obj 317 38 miniscope;
#X obj 168 195 miniscope;
#X obj 53 194 eq;
#X obj 20 470 dry_wet;
#X obj 19 523 audio;
#X obj 108 69 _f main_gain;
#X connect 1 0 2 0;
#X connect 1 1 2 0;
#X connect 2 0 22 0;
#X connect 2 0 23 0;
#X connect 3 0 21 0;
#X connect 3 0 2 0;
#X connect 3 1 4 0;
#X connect 4 0 3 0;
#X connect 5 0 3 0;
#X connect 6 0 10 0;
#X connect 6 0 24 0;
#X connect 8 0 19 0;
#X connect 10 0 24 1;
#X connect 10 1 24 2;
#X connect 19 0 7 0;
#X connect 20 0 7 0;
#X connect 23 0 6 0;
#X connect 24 0 25 0;
#X connect 24 1 25 1;
#X connect 26 0 2 1;
