#N canvas 253 68 686 654 10;
#X obj 424 34 p/detail_params;
#X obj 39 31 cnv 15 60 60 empty empty UDje-Electronics 20 12 0 14 -261682
-258113 0;
#X obj 417 420 p/audio;
#X obj 532 319 p/taptempo;
#X obj 415 342 p/audioTest;
#X obj 425 61 p/log;
#X obj 152 105 p/ctl/tenkey;
#X obj 41 350 p/fx/myVibrate;
#X obj 70 176 adc~;
#X obj 145 244 p/miniscope;
#X obj 70 207 *~ 1;
#X floatatom 122 179 5 0 0 0 - - -;
#N canvas 0 22 450 278 (subpatch) 0;
#X array test 2.76084e+06 float 0;
#X coords 0 1 2.76084e+06 -1 200 40 1 0 0;
#X restore 240 156 graph;
#X obj 255 255 soundfiler;
#X msg 255 204 read -resize /Users/tatsuyaogusu/Music/GarageBand/Export/OffBroadway.aif
test;
#X obj 319 312 tabplay~ test;
#X obj 320 284 bng 15 250 50 0 empty empty empty 17 7 0 10 -262144
-1 -1;
#X msg 341 283 stop;
#X obj 37 240 p/fx/eq;
#X obj 37 603 throw~ outL;
#X obj 155 603 throw~ outR;
#X obj 37 302 clip~ -1 1;
#X obj 184 361 p/toggle~;
#X floatatom 319 386 5 0 0 0 - - -;
#X floatatom 364 390 5 0 0 0 - - -;
#X obj 268 341 hsl 128 15 50 18000 0 0 empty empty empty -2 -8 0 10
-262144 -1 -1 0 1;
#X obj 239 440 p/fx/pingpong_delay;
#X obj 183 519 p/fx/compresser;
#X obj 183 434 *~ 1;
#X floatatom 200 408 5 0 0 0 - - -;
#X floatatom 206 479 5 0 0 0 - - -;
#X floatatom 246 480 5 0 0 0 - - -;
#X floatatom 285 478 5 0 0 0 - - -;
#X floatatom 324 482 5 0 0 0 - - -;
#X connect 7 0 19 0;
#X connect 7 1 20 0;
#X connect 8 0 10 0;
#X connect 10 0 18 0;
#X connect 10 0 9 0;
#X connect 11 0 10 1;
#X connect 14 0 13 0;
#X connect 15 0 7 0;
#X connect 15 0 22 0;
#X connect 16 0 15 0;
#X connect 17 0 15 0;
#X connect 18 0 21 0;
#X connect 21 0 7 0;
#X connect 21 0 22 0;
#X connect 22 0 28 0;
#X connect 23 0 26 1;
#X connect 24 0 26 2;
#X connect 25 0 23 0;
#X connect 27 0 19 0;
#X connect 27 0 20 0;
#X connect 28 0 27 0;
#X connect 29 0 28 1;
#X connect 30 0 27 1;
#X connect 31 0 27 2;
#X connect 32 0 27 3;
#X connect 33 0 27 4;
