#N canvas 635 39 434 559 10;
#X obj 25 59 inlet~;
#X obj 26 512 outlet~;
#X obj 156 58 inlet;
#X text 157 28 Q;
#X obj 105 56 inlet;
#X text 104 26 gain;
#X obj 33 337 wow;
#X obj 190 156 env~;
#X obj 190 182 - 50;
#X obj 190 210 clip 0 50;
#X obj 190 241 * 30;
#X floatatom 190 271 5 0 0 0 Hz. - -;
#X connect 0 0 6 0;
#X connect 0 0 7 0;
#X connect 2 0 6 3;
#X connect 4 0 6 1;
#X connect 6 0 1 0;
#X connect 7 0 8 0;
#X connect 8 0 9 0;
#X connect 9 0 10 0;
#X connect 10 0 11 0;
#X connect 11 0 6 2;
