#N canvas 217 91 780 602 10;
#X obj 52 68 inlet~;
#X obj 54 548 outlet~;
#X obj 52 153 delread~ \$0-comp 24;
#X obj 51 126 delwrite~ \$0-comp 24;
#X obj 195 125 env~ 1024;
#X floatatom 195 151 5 0 0 0 - - -;
#X obj 194 187 moses;
#X floatatom 340 147 5 0 0 0 - - -;
#X floatatom 391 149 5 0 0 0 - - -;
#X obj 222 219 expr (($f1 - $f3) / $f2) + $f3 - $f1;
#X obj 195 308 t b;
#X obj 196 346 pack 1 5;
#X floatatom 536 155 5 0 0 0 - - -;
#X obj 197 452 line~;
#X obj 365 306 + 100;
#X floatatom 365 279 5 0 0 0 - - -;
#X obj 365 334 dbtorms;
#X floatatom 365 363 5 0 0 0 - - -;
#X obj 364 394 pack 0 5;
#X floatatom 472 152 5 0 0 0 - - -;
#X obj 54 516 *~;
#X obj 263 55 inlet;
#X obj 356 55 inlet;
#X obj 533 52 inlet;
#X obj 474 55 inlet;
#X obj 633 62 \$1 \$2 \$3 \$4;
#X obj 632 37 loadbang;
#X text 631 16 argument;
#X obj 632 84 unpack 0 0 0 0;
#X text 263 29 factor(retio);
#X text 354 31 threshold(0-100);
#X text 473 32 attack;
#X text 538 29 release;
#X connect 0 0 3 0;
#X connect 0 0 4 0;
#X connect 2 0 20 0;
#X connect 4 0 5 0;
#X connect 5 0 6 0;
#X connect 6 0 10 0;
#X connect 6 1 9 0;
#X connect 7 0 9 1;
#X connect 8 0 9 2;
#X connect 8 0 6 1;
#X connect 9 0 15 0;
#X connect 10 0 11 0;
#X connect 11 0 13 0;
#X connect 12 0 11 1;
#X connect 13 0 20 1;
#X connect 14 0 16 0;
#X connect 15 0 14 0;
#X connect 16 0 17 0;
#X connect 17 0 18 0;
#X connect 18 0 13 0;
#X connect 19 0 18 1;
#X connect 20 0 1 0;
#X connect 21 0 7 0;
#X connect 22 0 8 0;
#X connect 23 0 12 0;
#X connect 24 0 19 0;
#X connect 25 0 28 0;
#X connect 26 0 25 0;
#X connect 28 0 7 0;
#X connect 28 1 8 0;
#X connect 28 2 19 0;
#X connect 28 3 12 0;
