#N canvas 547 103 715 475 10;
#X obj 220 47 inlet~;
#X obj 222 259 outlet~;
#X floatatom 147 131 8 0 0 0 hi_cat - -;
#X obj 220 143 hip~ 20;
#X obj 221 183 lop~ 20000;
#X floatatom 147 108 8 0 0 0 low_cat - -;
#X obj 54 236 tabwrite \$0-preset;
#X msg 54 202 \$1 0;
#X msg 101 201 \$1 1;
#X obj 361 140 tabread \$0-preset;
#X obj 333 55 loadbang;
#N canvas 0 22 450 278 (subpatch) 0;
#X array \$0-preset 2 float 3;
#A 0 641 16400;
#X coords 0 20 2 20000 80 80 1 0 0;
#X restore 464 45 graph;
#X obj 334 114 t f f;
#X obj 337 190 route 0 1;
#X obj 336 164 pack;
#X obj 333 82 uzi 2;
#X obj 372 81 - 1;
#X obj 333 32 bng 15 250 50 0 empty empty empty 17 7 0 10 -262144 -1
-1;
#X connect 0 0 3 0;
#X connect 2 0 4 1;
#X connect 2 0 8 0;
#X connect 3 0 4 0;
#X connect 4 0 1 0;
#X connect 5 0 3 1;
#X connect 5 0 7 0;
#X connect 7 0 6 0;
#X connect 8 0 6 0;
#X connect 9 0 14 1;
#X connect 10 0 15 0;
#X connect 12 0 14 0;
#X connect 12 1 9 0;
#X connect 13 0 5 0;
#X connect 13 1 2 0;
#X connect 14 0 13 0;
#X connect 15 2 16 0;
#X connect 16 0 12 0;
#X connect 17 0 10 0;
#X coords 0 -1 1 1 100 50 2 100 100;
