#N canvas 597 121 376 497 10;
#X obj 35 20 inlet~;
#X obj -38 249 outlet;
#X obj 58 328 line~;
#X msg 58 305 \$1 20;
#X obj 34 354 *~;
#X obj 141 183 hsl 100 15 0 1 0 0 empty empty empty -2 -8 0 10 -262144
-1 -1 9900 1;
#X text 139 161 LEVEL;
#X floatatom 176 160 5 0 0 0 - - -;
#X obj 130 151 cnv 15 120 5 empty \$0-panel empty 20 12 0 14 -66577
-66577 0;
#X obj 35 428 outlet~;
#X obj -34 98 inlet;
#X obj 213 161 indicader;
#X obj 96 20 inlet~;
#X obj 121 331 line~;
#X msg 121 308 \$1 20;
#X obj 97 357 *~;
#X obj 97 425 outlet~;
#X connect 0 0 4 0;
#X connect 2 0 4 1;
#X connect 3 0 2 0;
#X connect 4 0 9 0;
#X connect 4 0 11 0;
#X connect 5 0 7 0;
#X connect 7 0 1 0;
#X connect 7 0 3 0;
#X connect 7 0 14 0;
#X connect 10 0 5 0;
#X connect 12 0 15 0;
#X connect 13 0 15 1;
#X connect 14 0 13 0;
#X connect 15 0 16 0;
#X connect 15 0 11 0;
#X coords 0 -1 1 1 120 55 2 130 150;
