#N canvas 745 208 607 430 10;
#X obj 48 37 inlet;
#X obj 19 347 outlet;
#X obj 49 204 expr ($f1 * abs($f3-$f2)) + $f2;
#X floatatom 165 114 6 0 0 2 min - -;
#X floatatom 207 114 6 0 0 2 max - -;
#X floatatom 258 205 3 0 0 2 id - -;
#X obj 49 179 / 127;
#X text 48 14 ctl(0-127);
#X obj 49 154 clip 0 127;
#X obj 168 130 hsl 75 8 0 127 0 0 empty empty empty -2 -8 0 10 -262144
-1 -1 1980 1;
#X obj 248 108 vradio 10 1 0 3 empty empty empty 0 -8 0 10 -262144
-1 -1 0;
#X text 260 104 0;
#X text 260 114 1;
#X text 260 124 2;
#X obj 220 344 outlet;
#X obj 18 284 gate 3;
#X obj 220 316 pack 0 0 0;
#X obj 18 257 + 1;
#X obj -30 220 loadbang;
#X msg -30 245 1;
#X obj 62 346 outlet;
#X obj 105 346 outlet;
#X obj 255 18 inlet;
#X text 266 345 to preset manager;
#X text 298 19 from preset;
#X obj 254 43 unpack 0 0 0;
#X obj 264 242 t b f;
#X obj 219 240 t b f;
#X msg 75 77 set \$1;
#X connect 0 0 8 0;
#X connect 0 0 28 0;
#X connect 2 0 15 1;
#X connect 3 0 2 1;
#X connect 3 0 16 0;
#X connect 4 0 2 2;
#X connect 4 0 27 0;
#X connect 5 0 17 0;
#X connect 5 0 26 0;
#X connect 6 0 2 0;
#X connect 8 0 6 0;
#X connect 9 0 8 0;
#X connect 10 0 5 0;
#X connect 15 0 1 0;
#X connect 15 1 20 0;
#X connect 15 2 21 0;
#X connect 16 0 14 0;
#X connect 17 0 15 0;
#X connect 18 0 19 0;
#X connect 19 0 15 0;
#X connect 22 0 25 0;
#X connect 25 0 3 0;
#X connect 25 1 4 0;
#X connect 25 2 10 0;
#X connect 26 0 16 0;
#X connect 26 1 16 2;
#X connect 27 0 16 0;
#X connect 27 1 16 1;
#X connect 28 0 9 0;
#X coords 0 -1 1 1 110 40 2 160 100;
