#N canvas 749 201 195 203 10;
#X obj 35 -50 inlet~;
#X obj 115 100 tgl 15 0 empty empty empty 17 7 0 10 -1 -258113 -1 1
1;
#X obj 35 -21 env~;
#X obj 77 62 > 90;
#X obj 100 100 tgl 15 0 empty empty empty 17 7 0 10 -1 -4034 -1 1 1
;
#X obj 41 62 > 60;
#X obj 35 27 line;
#X msg 35 4 \$1 200;
#X connect 0 0 2 0;
#X connect 2 0 7 0;
#X connect 3 0 1 0;
#X connect 5 0 4 0;
#X connect 6 0 5 0;
#X connect 6 0 3 0;
#X connect 7 0 6 0;
#X coords 0 -1 1 1 30 15 2 100 100;
