#N canvas 0 22 186 333 10;
#X obj 17 20 loadbang;
#X obj 17 150 del;
#X obj 17 77 t b b;
#X obj 46 125 + 50;
#X obj 46 102 random 100;
#X obj 18 296 outlet;
#X obj 17 180 prepend \$1;
#X obj 17 209 s to_preset;
#X obj 18 244 r from_preset;
#X obj 77 20 inlet;
#X connect 0 0 2 0;
#X connect 1 0 6 0;
#X connect 2 0 1 0;
#X connect 2 1 4 0;
#X connect 3 0 1 1;
#X connect 4 0 3 0;
#X connect 6 0 7 0;
#X connect 8 0 5 0;
#X connect 9 0 2 0;
