#N canvas 0 22 753 394 10;
#X obj 114 49 delwrite~ \$0-delayline 1000;
#X obj 180 167 delread~ \$0-delayline 1000;
#X obj 91 15 inlet~;
#X obj 91 296 outlet~;
#X floatatom 242 116 5 0 1000 2 DelayTime - -;
#X obj 92 226 *~ 1;
#X floatatom 113 202 5 0 0 0 - - -;
#X obj 103 138 * 0.01;
#X floatatom 201 205 5 0 0 0 - - -;
#X obj 180 228 *~ 0;
#X obj 103 166 expr 1-$f1;
#X obj 106 116 hsl 128 15 0 100 0 0 empty empty empty -2 -8 0 10 -262144
-1 -1 0 1;
#X text 102 100 DRY;
#X text 217 99 WET;
#X floatatom 297 116 5 0 100 2 Feedback - -;
#X obj 297 141 * 0.01;
#X obj 250 202 *~ 0;
#X obj 338 19 inlet;
#X obj 389 17 inlet;
#X obj 355 285 outlet~;
#X obj 351 166 delread~ \$0-delayline 500;
#X obj 351 140 / 2;
#X floatatom 381 204 5 0 0 0 - - -;
#X obj 360 227 *~ 0;
#X connect 1 0 9 0;
#X connect 1 0 16 0;
#X connect 2 0 0 0;
#X connect 2 0 5 0;
#X connect 4 0 1 0;
#X connect 4 0 21 0;
#X connect 5 0 3 0;
#X connect 5 0 19 0;
#X connect 6 0 5 1;
#X connect 7 0 8 0;
#X connect 7 0 10 0;
#X connect 7 0 22 0;
#X connect 8 0 9 1;
#X connect 9 0 3 0;
#X connect 10 0 6 0;
#X connect 11 0 7 0;
#X connect 14 0 15 0;
#X connect 15 0 16 1;
#X connect 16 0 0 0;
#X connect 17 0 4 0;
#X connect 18 0 14 0;
#X connect 20 0 23 0;
#X connect 21 0 20 0;
#X connect 22 0 23 1;
#X connect 23 0 19 0;
#X coords 0 -1 1 1 250 35 2 100 100;
