#N canvas 0 22 450 300 10;
#X obj 49 51 inlet~;
#X obj 58 214 outlet~;
#X obj 54 174 clip~ -0.7 0.7;
#X floatatom 102 102 5 0 0 1 distortion - -;
#X obj 50 137 *~ 200;
#X obj 104 51 inlet;
#X connect 0 0 4 0;
#X connect 2 0 1 0;
#X connect 3 0 4 1;
#X connect 4 0 2 0;
#X connect 5 0 3 0;
#X coords 0 -1 1 1 100 20 2 100 100;
