#N canvas 375 216 437 357 10;
#X obj 83 2 inlet~;
#X obj 84 250 +~;
#X obj 84 280 outlet~;
#X obj 102 191 +~ 10;
#X floatatom 103 117 5 0 0 1 freq - -;
#X obj 103 143 osc~ 5;
#X floatatom 167 117 5 0 0 1 depth - -;
#X obj 103 169 *~ 5;
#X obj 102 39 +~;
#X obj 135 42 *~ 0.8;
#X obj 102 219 vd~ \$0-flanger;
#X obj 102 64 delwrite~ \$0-flanger 150;
#X text 101 100 flanger vibrato;
#X floatatom 237 117 5 0 100 1 feedback - -;
#X obj 237 147 * 0.01;
#X obj 245 8 inlet;
#X obj 287 7 inlet;
#X obj 330 7 inlet;
#X connect 0 0 1 0;
#X connect 0 0 8 0;
#X connect 1 0 2 0;
#X connect 3 0 10 0;
#X connect 4 0 5 0;
#X connect 5 0 7 0;
#X connect 6 0 7 1;
#X connect 7 0 3 0;
#X connect 8 0 11 0;
#X connect 9 0 8 1;
#X connect 10 0 1 1;
#X connect 10 0 9 0;
#X connect 13 0 14 0;
#X connect 14 0 9 1;
#X connect 15 0 4 0;
#X connect 16 0 6 0;
#X connect 17 0 13 0;
#X coords 0 -1 1 1 220 35 2 100 100;
