#N canvas 355 150 791 446 10;
#X obj 426 -95 inlet;
#X obj -26 -69 inlet~;
#X floatatom 82 85 5 0 0 0 depth #0-depth_set #0-depth;
#X obj 5 5 ../toggle~;
#X floatatom 83 57 5 0 0 0 freq #0-freq_set #0-freq;
#X obj 501 -91 inlet;
#X obj 271 -86 route 0 1 2 3;
#X obj 271 -112 r \$0-preset;
#X obj 383 248 s \$0-preset;
#X obj 382 103 r \$0-lv;
#X obj 15 270 outlet~;
#X obj 72 270 outlet~;
#X obj 4 76 fx_level;
#X obj 41 6 cnv 15 70 30 empty empty FLANGER 3 12 0 14 -191407 -4160
0;
#X obj -102 265 s \$0-lv;
#X obj 374 -97 inlet;
#X obj -109 -70 r \$0-lv_set;
#X obj 378 44 s \$0-lv_set;
#X obj 132 170 mono2stereo;
#X obj 383 218 preset_manager preset/myFlanger.txt;
#X obj 489 -14 s \$0-depth_set;
#X obj 132 111 flanger;
#X obj 549 -39 s \$0-feedback_set;
#X obj 423 19 s \$0-freq_set;
#X obj 423 129 r \$0-freq;
#X obj 465 156 r \$0-depth;
#X obj 507 183 r \$0-feedback;
#X floatatom 82 109 5 0 0 0 fedbk #0-feedback_set #0-feedback;
#X obj 555 -94 inlet;
#X obj 135 16 r \$0-freq;
#X obj 179 40 r \$0-depth;
#X obj 221 67 r \$0-feedback;
#X obj 35 -79 inlet;
#X obj -85 88 switch~;
#X connect 0 0 23 0;
#X connect 1 0 3 0;
#X connect 3 0 21 0;
#X connect 3 1 33 0;
#X connect 5 0 20 0;
#X connect 6 0 17 0;
#X connect 6 1 23 0;
#X connect 6 2 20 0;
#X connect 6 3 22 0;
#X connect 7 0 6 0;
#X connect 9 0 19 0;
#X connect 12 0 14 0;
#X connect 12 1 10 0;
#X connect 12 2 11 0;
#X connect 15 0 17 0;
#X connect 16 0 12 0;
#X connect 18 0 12 1;
#X connect 18 1 12 2;
#X connect 19 0 8 0;
#X connect 21 0 18 0;
#X connect 24 0 19 1;
#X connect 25 0 19 2;
#X connect 26 0 19 3;
#X connect 28 0 22 0;
#X connect 29 0 21 1;
#X connect 30 0 21 2;
#X connect 31 0 21 3;
#X connect 32 0 3 1;
#X coords 0 -1 1 1 120 200 2 0 0;
