#N canvas 129 124 1077 428 10;
#X obj 657 -91 inlet;
#X obj -26 -69 inlet~;
#X obj 5 5 ../toggle~;
#X floatatom 81 78 5 0 0 0 intvl #0-intvl_set #0-intvl;
#X obj 502 -82 route 0 1 2 3;
#X obj 502 -108 r \$0-preset;
#X obj 614 252 s \$0-preset;
#X obj 613 107 r \$0-lv;
#X obj 15 270 outlet~;
#X obj 72 270 outlet~;
#X obj 4 76 fx_level;
#X obj 41 6 cnv 15 70 30 empty empty MOD_TRM 3 12 0 14 -191407 -4160
0;
#X obj -120 259 s \$0-lv;
#X obj 605 -93 inlet;
#X obj -133 -69 r \$0-lv_set;
#X obj 609 48 s \$0-lv_set;
#X obj 49 186 hsl 60 8 0 1 0 0 empty empty empty -2 -8 0 10 -1 -4034
-1 4677 1;
#X obj 138 151 mono2panning 0.75;
#X text 44 169 pan;
#X obj 614 222 preset_manager preset/myModTremoro.txt;
#N canvas 0 22 450 278 (subpatch) 0;
#X array \$0-buf 44100 float 0;
#X coords 0 1 44099 -1 100 30 1 0 0;
#X restore 345 -22 graph;
#X obj 140 5 tabwrite~ \$0-buf;
#X obj 139 -18 bng 15 250 50 0 empty empty empty 17 7 0 10 -262144
-1 -1;
#X obj 265 129 tabread~ \$0-buf;
#X obj 265 42 phasor~;
#X floatatom 264 19 10 0 0 0 - - -;
#X obj 139 124 *~;
#X obj 265 63 *~ -1;
#X obj 265 85 +~ 1;
#X obj 155 97 toLine~ 1000;
#X obj 263 -33 / 1000;
#X obj 263 -9 + 0.5;
#X obj 139 -42 metro 1000;
#X floatatom 196 -69 5 0 0 0 - - -;
#X obj 263 -56 random 1000;
#X obj 197 -100 r \$0-intvl;
#X obj 654 23 s \$0-intvl_set;
#X obj 654 133 r \$0-intvl;
#X obj 265 106 *~ 44100;
#X connect 0 0 36 0;
#X connect 1 0 2 0;
#X connect 2 0 21 0;
#X connect 2 1 29 0;
#X connect 2 1 32 0;
#X connect 4 0 15 0;
#X connect 4 1 36 0;
#X connect 5 0 4 0;
#X connect 7 0 19 0;
#X connect 10 0 12 0;
#X connect 10 1 8 0;
#X connect 10 2 9 0;
#X connect 13 0 15 0;
#X connect 14 0 10 0;
#X connect 17 0 10 1;
#X connect 17 1 10 2;
#X connect 17 2 16 0;
#X connect 19 0 6 0;
#X connect 22 0 21 0;
#X connect 22 0 34 0;
#X connect 23 0 26 0;
#X connect 24 0 27 0;
#X connect 25 0 24 0;
#X connect 26 0 17 0;
#X connect 27 0 28 0;
#X connect 28 0 38 0;
#X connect 29 0 26 1;
#X connect 30 0 31 0;
#X connect 32 0 22 0;
#X connect 33 0 32 1;
#X connect 34 0 30 0;
#X connect 35 0 33 0;
#X connect 37 0 19 1;
#X connect 38 0 23 0;
#X coords 0 -1 1 1 120 200 2 0 0;
