#N canvas 386 112 791 446 10;
#X obj 426 -95 inlet;
#X obj -26 -69 inlet~;
#X floatatom 82 85 5 0 0 0 pan_fq #0-pan_set #0-pan;
#X obj 5 5 ../toggle~;
#X floatatom 83 57 5 0 0 0 freq #0-freq_set #0-freq;
#X obj 501 -91 inlet;
#X obj 271 -86 route 0 1 2 3;
#X obj 271 -112 r \$0-preset;
#X obj 383 248 s \$0-preset;
#X obj 382 103 r \$0-lv;
#X obj 15 270 outlet~;
#X obj 72 270 outlet~;
#X obj 4 76 fx_level;
#X obj 41 6 cnv 15 70 30 empty empty TREMORO 3 12 0 14 -191407 -4160
0;
#X obj -75 228 s \$0-lv;
#X obj 374 -97 inlet;
#X obj -76 20 r \$0-lv_set;
#X obj 378 44 s \$0-lv_set;
#X obj 423 19 s \$0-freq_set;
#X obj 210 59 r \$0-freq;
#X obj 49 186 hsl 60 8 0 1 0 0 empty empty empty -2 -8 0 10 -1 -4034
-1 207 1;
#X obj 143 145 mono2panning 0.75;
#X text 44 169 pan;
#X obj 143 113 tremoro 2;
#X obj 383 218 preset_manager preset/myTremoro.txt;
#X obj 423 129 r \$0-freq;
#X obj 465 156 r \$0-pan;
#X obj 489 -14 s \$0-pan_set;
#X obj 254 83 r \$0-pan;
#X connect 0 0 18 0;
#X connect 1 0 3 0;
#X connect 3 0 23 0;
#X connect 5 0 27 0;
#X connect 6 0 17 0;
#X connect 6 1 18 0;
#X connect 6 2 27 0;
#X connect 7 0 6 0;
#X connect 9 0 24 0;
#X connect 12 0 14 0;
#X connect 12 1 10 0;
#X connect 12 2 11 0;
#X connect 15 0 17 0;
#X connect 16 0 12 0;
#X connect 19 0 23 1;
#X connect 21 0 12 1;
#X connect 21 1 12 2;
#X connect 21 2 20 0;
#X connect 23 0 21 0;
#X connect 24 0 8 0;
#X connect 25 0 24 1;
#X connect 26 0 24 2;
#X connect 28 0 21 1;
#X coords 0 -1 1 1 120 200 2 0 0;
