#N canvas 307 98 803 417 10;
#X obj 418 -96 inlet;
#X obj -26 -69 inlet~;
#X floatatom 81 85 5 0 0 0 width #0-width_set #0-width;
#X obj 5 5 ../toggle~;
#X floatatom 80 58 5 0 0 0 lfo #0-lfo_set #0-lfo;
#X obj 147 -53 r \$0-lfo;
#X obj 219 -54 r \$0-width;
#X obj 460 -96 inlet;
#X obj 424 152 r \$0-lfo;
#X obj 466 179 r \$0-width;
#X obj 562 -79 route 0 1 2 3;
#X obj 562 -105 r \$0-preset;
#X obj 383 248 s \$0-preset;
#X obj 383 126 r \$0-lv;
#X obj 15 270 outlet~;
#X obj 72 270 outlet~;
#X obj 4 76 fx_level;
#X obj 41 6 cnv 15 70 30 empty empty VIVRATE 3 12 0 14 -262130 -159808
0;
#X obj -114 268 s \$0-lv;
#X obj 374 -97 inlet;
#X obj 459 -13 s \$0-lfo_set;
#X obj 553 -13 s \$0-width_set;
#X obj -114 -66 r \$0-lv_set;
#X obj 378 -11 s \$0-lv_set;
#X obj 68 119 vibrate;
#X obj 26 -73 inlet;
#X obj -89 82 switch~;
#X obj 383 218 preset_manager preset/myVibrate.txt;
#X obj 160 133 mono2stereo 25;
#X connect 0 0 20 0;
#X connect 1 0 3 0;
#X connect 3 0 24 0;
#X connect 3 1 26 0;
#X connect 5 0 24 1;
#X connect 6 0 24 2;
#X connect 7 0 21 0;
#X connect 8 0 27 1;
#X connect 9 0 27 2;
#X connect 10 0 23 0;
#X connect 10 1 20 0;
#X connect 10 2 21 0;
#X connect 11 0 10 0;
#X connect 13 0 27 0;
#X connect 16 0 18 0;
#X connect 16 1 14 0;
#X connect 16 2 15 0;
#X connect 19 0 23 0;
#X connect 22 0 16 0;
#X connect 24 0 28 0;
#X connect 25 0 3 1;
#X connect 27 0 12 0;
#X connect 28 0 16 1;
#X connect 28 1 16 2;
#X coords 0 -1 1 1 120 200 2 0 0;
