#N canvas 226 74 797 710 10;
#X obj 317 74 inlet;
#X obj -13 146 inlet~;
#X floatatom 195 380 10 0 0 0 - - -;
#X obj 195 432 line~;
#X obj 195 452 vd~ \$0-del;
#X text -11 77 VIBRATION;
#X obj -4 656 throw~ outL;
#X obj 76 657 throw~ outR;
#X obj 32 362 vsl 15 128 0 1 0 0 empty empty empty 0 -9 0 10 -262144
-1 -1 12700 1;
#X obj 200 232 osc~;
#X obj 203 298 hsl 60 8 -1 1 0 0 empty empty empty -2 -8 0 10 -262144
-1 -1 5633 1;
#X floatatom 399 121 5 0 0 0 width - #0-width;
#X obj 197 322 + 1;
#X obj 200 273 snapshot~;
#X obj -13 206 ../toggle~;
#X floatatom 52 478 5 0 0 0 - - -;
#X obj 17 522 *~ 0;
#X msg 470 541 \; 0-mst_vol 0.8 \; 0-lfo 5 \;;
#X floatatom 468 463 5 0 0 0 - - -;
#X floatatom 514 466 5 0 0 0 - - -;
#X obj 469 489 pack 0 0;
#X msg 470 514 set \, addsemi \, add \$0-mst_vol \$1 \, add \$0-lfo
\$2;
#X floatatom 317 120 5 0 0 0 lfo - #0-lfo;
#X obj 201 197 r \$0-lfo;
#X obj 281 296 r \$0-width;
#X obj 398 73 inlet;
#X obj 280 321 * 0.5;
#X obj 196 348 *;
#X obj 247 73 inlet;
#X floatatom 247 119 5 0 1 0 level - #0-level;
#X obj 33 333 r \$0-level;
#X obj 9 276 delwrite~ \$0-del 1000;
#X msg 194 409 \$1 80;
#X obj 17 553 mono2stereo;
#X obj -5 595 dry_wet;
#X obj 109 556 r \$0-dry_wet;
#X obj 3 185 indicader;
#X obj 252 230 r dsp_run_metro;
#X obj 72 43 hradio 15 1 0 8 empty empty empty 0 -8 0 10 -262144 -1
-1 0;
#X obj 28 635 indicader;
#X connect 0 0 22 0;
#X connect 1 0 14 0;
#X connect 1 0 36 0;
#X connect 2 0 32 0;
#X connect 3 0 4 0;
#X connect 4 0 16 0;
#X connect 8 0 15 0;
#X connect 8 0 16 1;
#X connect 9 0 13 0;
#X connect 10 0 12 0;
#X connect 12 0 27 0;
#X connect 13 0 10 0;
#X connect 14 0 31 0;
#X connect 14 0 34 0;
#X connect 16 0 33 0;
#X connect 18 0 20 0;
#X connect 19 0 20 1;
#X connect 20 0 21 0;
#X connect 21 0 17 0;
#X connect 23 0 9 0;
#X connect 24 0 26 0;
#X connect 25 0 11 0;
#X connect 26 0 27 1;
#X connect 27 0 2 0;
#X connect 28 0 29 0;
#X connect 30 0 8 0;
#X connect 32 0 3 0;
#X connect 33 0 34 1;
#X connect 33 1 34 2;
#X connect 34 0 6 0;
#X connect 34 0 39 0;
#X connect 34 1 7 0;
#X connect 34 1 39 0;
#X connect 35 0 34 3;
#X connect 37 0 13 0;
#X coords 0 667 1 666 200 40 0;
