#N canvas 110 63 1012 430 10;
#X obj -26 -69 inlet~;
#X floatatom 214 261 5 0 0 0 width #0-width_set #0-width;
#X obj 5 5 ../toggle~;
#X floatatom 213 234 5 0 0 0 lfo #0-lfo_set #0-lfo;
#X obj 554 -38 route 0 1 2 3;
#X obj 554 -64 r \$0-preset;
#X obj 374 242 s \$0-preset;
#X obj 372 179 r \$0-lv;
#X obj 15 270 outlet~;
#X obj 72 270 outlet~;
#X obj 4 76 fx_level;
#X obj 41 6 cnv 15 70 30 empty empty VIVRATE 3 12 0 14 -262130 -159808
0;
#X obj -114 268 s \$0-lv;
#X obj -114 -66 r \$0-lv_set;
#X obj 553 11 s \$0-lv_set;
#X obj 75 134 vibrate;
#X obj 26 -73 inlet;
#X obj -91 98 switch~;
#X obj 374 212 preset_manager preset/myVibrate.txt;
#X obj 87 218 mono2stereo 25;
#X obj 191 -65 r fx_x;
#X obj 244 -65 r fx_y;
#X floatatom 191 -40 5 0 0 0 - - -;
#X floatatom 244 -40 5 0 0 0 - - -;
#X obj 189 4 fx_param_mapping;
#X text 535 64 0:freq;
#X text 529 79 1:depth;
#X floatatom 192 70 5 0 0 0 - - -;
#X floatatom 238 70 5 0 0 0 - - -;
#X obj 723 9 s \$0-mapy_set;
#X obj 634 9 s \$0-mapx_set;
#X obj 428 180 r \$0-mapx;
#X obj 494 182 r \$0-mapy;
#X obj 355 91 s \$0-mapx;
#X obj 427 93 s \$0-mapy;
#X obj 376 -39 r \$0-mapx_set;
#X obj 465 -39 r \$0-mapy_set;
#X obj 301 4 fx_param_mapping;
#X connect 0 0 2 0;
#X connect 2 0 15 0;
#X connect 2 1 17 0;
#X connect 4 0 14 0;
#X connect 4 1 30 0;
#X connect 4 2 29 0;
#X connect 5 0 4 0;
#X connect 7 0 18 0;
#X connect 10 0 12 0;
#X connect 10 1 8 0;
#X connect 10 2 9 0;
#X connect 13 0 10 0;
#X connect 15 0 19 0;
#X connect 16 0 2 1;
#X connect 18 0 6 0;
#X connect 19 0 10 1;
#X connect 19 1 10 2;
#X connect 20 0 22 0;
#X connect 21 0 23 0;
#X connect 22 0 24 0;
#X connect 23 0 37 0;
#X connect 24 0 27 0;
#X connect 24 1 28 0;
#X connect 24 3 33 0;
#X connect 27 0 15 1;
#X connect 28 0 15 2;
#X connect 31 0 18 1;
#X connect 32 0 18 2;
#X connect 35 0 24 1;
#X connect 36 0 37 1;
#X connect 37 0 27 0;
#X connect 37 1 28 0;
#X connect 37 3 34 0;
#X coords 0 -1 1 1 120 200 2 0 0;
