#N canvas 635 60 469 649 10;
#X obj 257 48 inlet;
#X obj 33 45 inlet~;
#X obj 132 277 delwrite~ \$0-del 1000;
#X floatatom 264 334 5 0 0 0 - - -;
#X obj 82 244 *~ 0.5;
#X obj 132 244 *~ 0.5;
#X obj 124 119 hsl 128 15 0 1 0 0 empty empty empty -2 -8 0 10 -262144
-1 -1 12700 1;
#X obj 127 211 abs;
#X obj 127 188 - 1;
#X obj 103 119 tgl 15 0 empty empty empty 17 7 0 10 -262144 -1 -1 1
1;
#X obj 69 164 *~ 1;
#X obj 32 164 *~ 0;
#X obj 100 46 loadbang;
#X msg 101 68 1;
#X obj 264 386 line~;
#X obj 264 406 vd~ \$0-del;
#X text 104 99 VIBRATION;
#X obj 46 138 == 0;
#X obj 41 507 *~ 0;
#X obj 43 552 throw~ outL;
#X obj 119 551 throw~ outR;
#X obj 210 350 vsl 15 128 0 1 0 0 empty empty empty 0 -9 0 10 -262144
-1 -1 6500 1;
#X msg 264 364 \$1 60;
#X obj 309 203 osc~;
#X floatatom 309 177 5 0 0 0 - - -;
#X connect 0 0 24 0;
#X connect 1 0 11 0;
#X connect 1 0 10 0;
#X connect 3 0 22 0;
#X connect 4 0 18 0;
#X connect 5 0 2 0;
#X connect 6 0 5 1;
#X connect 6 0 8 0;
#X connect 7 0 4 1;
#X connect 8 0 7 0;
#X connect 9 0 10 1;
#X connect 9 0 17 0;
#X connect 10 0 4 0;
#X connect 10 0 5 0;
#X connect 12 0 13 0;
#X connect 13 0 9 0;
#X connect 13 0 6 0;
#X connect 14 0 15 0;
#X connect 15 0 18 0;
#X connect 17 0 11 1;
#X connect 18 0 19 0;
#X connect 18 0 20 0;
#X connect 21 0 18 1;
#X connect 22 0 14 0;
#X connect 24 0 23 0;
#X coords 0 -1 1 1 200 40 2 100 100;
