#N canvas 238 173 553 356 10;
#X obj 58 294 outlet~;
#X obj 196 295 outlet~;
#X obj 256 56 inlet;
#X obj 351 54 inlet;
#X text 256 36 delay time;
#X text 349 36 decay;
#X obj 54 40 inlet~;
#X floatatom 257 86 5 0 0 0 - - -;
#X floatatom 352 88 5 0 0 0 - - -;
#X obj 226 139 / 2;
#X obj 196 171 del~ 250;
#X obj 57 195 mono_delay 500 0.5;
#X obj 417 30 \$1 \$2;
#X obj 417 3 loadbang;
#X obj 418 55 unpack 0 0;
#X obj 195 196 mono_delay 500 0.5 1;
#X connect 2 0 7 0;
#X connect 3 0 8 0;
#X connect 6 0 10 0;
#X connect 6 0 11 0;
#X connect 7 0 9 0;
#X connect 7 0 11 1;
#X connect 7 0 15 1;
#X connect 8 0 11 2;
#X connect 8 0 15 2;
#X connect 9 0 10 1;
#X connect 10 0 15 0;
#X connect 11 0 0 0;
#X connect 12 0 14 0;
#X connect 13 0 12 0;
#X connect 14 0 7 0;
#X connect 14 1 8 0;
#X connect 15 0 1 0;
