#N canvas 318 168 827 505 10;
#X obj 187 67 inlet;
#X obj 187 94 prepend 0;
#X obj 249 66 inlet;
#X obj 313 65 inlet;
#X obj 375 64 inlet;
#X obj 438 63 inlet;
#X obj 500 62 inlet;
#X obj 249 93 prepend 1;
#X obj 313 92 prepend 2;
#X obj 375 91 prepend 3;
#X obj 438 90 prepend 4;
#X obj 500 90 prepend 5;
#X obj 52 48 loadbang;
#X obj 52 153 del;
#X obj 67 100 random 100;
#X obj 67 124 + 50;
#X msg 52 207 dump;
#X text 51 5 ※必ずアーギュメントでファイル名を指定してください。
;
#X obj 247 340 coll;
#C restore;
#X obj 117 205 prepend read;
#X obj 444 294 prepend write;
#X obj 444 236 symbol \$1;
#X obj 444 212 bng 15 250 50 0 empty empty empty 17 7 0 10 -262144
-1 -1;
#X obj 444 262 route symbol;
#X text 466 209 first: make preset file;
#X obj 52 71 t b b b;
#X obj 308 458 s log_info;
#X obj 32 48 bng 15 250 50 0 empty empty empty 17 7 0 10 -262144 -1
-1;
#X obj 227 248 del 1;
#X obj 270 211 t b a;
#X text 187 42 request save values as each inlet [max 6];
#X obj 311 410 prepend \$1;
#X obj 118 179 prepend \$1;
#X obj 311 434 prepend read;
#X obj 398 458 s log_info;
#X obj 401 410 prepend \$1;
#X obj 401 434 prepend dump;
#X obj 180 461 outlet;
#X obj 682 414 route 0 1 2 3;
#X obj 682 388 r \$0-preset;
#X obj 564 328 cnv 15 200 5 empty empty setter 20 12 0 14 -233017 -66577
0;
#X obj 568 426 s \$0-preset;
#X text 566 391 [from outlet:0];
#X text 680 437 to each parameters;
#X text 582 353 comment;
#X msg 227 270 writeagain;
#X obj 180 421 prepend;
#X msg 398 288 clear;
#X connect 0 0 1 0;
#X connect 1 0 29 0;
#X connect 2 0 7 0;
#X connect 3 0 8 0;
#X connect 4 0 9 0;
#X connect 5 0 10 0;
#X connect 6 0 11 0;
#X connect 7 0 29 0;
#X connect 8 0 29 0;
#X connect 9 0 29 0;
#X connect 10 0 29 0;
#X connect 11 0 29 0;
#X connect 12 0 25 0;
#X connect 13 0 16 0;
#X connect 14 0 15 0;
#X connect 15 0 13 1;
#X connect 16 0 18 0;
#X connect 18 0 46 0;
#X connect 18 1 46 1;
#X connect 18 2 31 0;
#X connect 18 3 35 0;
#X connect 19 0 18 0;
#X connect 20 0 18 0;
#X connect 21 0 23 0;
#X connect 22 0 21 0;
#X connect 23 0 20 0;
#X connect 25 0 13 0;
#X connect 25 1 14 0;
#X connect 25 2 32 0;
#X connect 27 0 12 0;
#X connect 28 0 45 0;
#X connect 29 0 28 0;
#X connect 29 1 18 0;
#X connect 31 0 33 0;
#X connect 32 0 19 0;
#X connect 33 0 26 0;
#X connect 35 0 36 0;
#X connect 36 0 34 0;
#X connect 39 0 38 0;
#X connect 45 0 18 0;
#X connect 46 0 37 0;
#X connect 47 0 18 0;
