#N canvas 756 105 389 541 10;
#X floatatom 104 257 10 0 0 0 - - -;
#X obj 104 309 line~;
#X obj 104 336 vd~ \$0-del;
#X obj 104 32 osc~;
#X obj 105 181 + 1;
#X obj 103 65 snapshot~;
#X obj 278 180 * 0.5;
#X obj 105 225 *;
#X obj 53 -41 delwrite~ \$0-del 1000;
#X msg 103 286 \$1 80;
#X obj 156 30 r dsp_run_metro;
#X obj 105 105 vsl 8 50 -1 1 0 0 empty empty empty 0 -9 0 10 -262144
-1 -1 4900 1;
#X obj 52 -71 inlet~;
#X obj 71 402 outlet~;
#X obj 324 -68 inlet;
#X obj 245 -66 inlet;
#X connect 0 0 9 0;
#X connect 1 0 2 0;
#X connect 2 0 13 0;
#X connect 3 0 5 0;
#X connect 4 0 7 0;
#X connect 5 0 11 0;
#X connect 6 0 7 1;
#X connect 7 0 0 0;
#X connect 9 0 1 0;
#X connect 10 0 5 0;
#X connect 11 0 4 0;
#X connect 12 0 8 0;
#X connect 14 0 6 0;
#X connect 15 0 3 0;
#X coords 0 -1 1 1 20 60 2 100 100;
