#N canvas 624 57 526 549 10;
#X obj 74 48 inlet~;
#X obj 80 479 outlet~;
#X obj 80 315 vcf~;
#X floatatom 256 225 5 0 0 0 - - -;
#X obj 195 224 line~;
#X msg 194 194 \$1 20;
#X obj 75 138 *~ 3;
#X obj 193 50 inlet;
#X obj 254 49 inlet;
#X text 193 21 freq;
#X text 254 22 Q;
#X obj 143 49 inlet;
#X floatatom 109 103 5 0 0 0 - - -;
#X obj 75 190 clip~ -0.7 0.7;
#X text 142 19 gain;
#X connect 0 0 6 0;
#X connect 2 0 1 0;
#X connect 3 0 2 2;
#X connect 4 0 2 1;
#X connect 5 0 4 0;
#X connect 6 0 13 0;
#X connect 7 0 5 0;
#X connect 8 0 3 0;
#X connect 11 0 12 0;
#X connect 12 0 6 1;
#X connect 13 0 2 0;
