#N canvas 585 61 662 630 10;
#X obj 273 77 dsp;
#X obj 197 121 tgl 15 1 dsp_run dsp_tgl empty 8 -8 0 10 -86277 -257985
-258113 1 1;
#X obj 111 122 vsl 15 128 0 30 0 0 empty \$0-vol empty 0 -9 0 10 -262144
-1 -1 8400 1;
#X floatatom 111 259 5 0 30 0 - - -;
#X msg 304 325 set \$1;
#X obj 261 327 / 30;
#X floatatom 261 351 5 0 0 0 - - -;
#X obj 283 389 != 0;
#X obj 304 352 s \$0-vol;
#X obj 280 503 s dsp_tgl;
#X obj 64 544 dac~ 1 2;
#X obj 63 474 *~;
#X obj 137 473 *~;
#X obj 45 384 clip~ -1 1;
#X obj 119 383 clip~ -1 1;
#X obj 44 352 catch~ sndL;
#X obj 118 352 catch~ sndR;
#N canvas 0 22 450 278 (subpatch) 0;
#X array \$0-scope 256 float 0;
#X coords 0 1 255 -1 80 40 1 0 0;
#X restore 196 228 graph;
#X obj 147 543 tabwrite~ \$0-scope;
#X obj 181 476 tgl 15 0 empty empty empty 17 7 0 10 -262144 -1 -1 1
1;
#X obj 183 498 metro 10;
#X obj 281 456 del 100;
#X msg 281 479 0;
#X obj 282 412 change;
#X obj 280 434 sel 0;
#X text 216 120 DSP ON/OFF;
#X floatatom 196 168 5 0 0 0 - - -;
#X floatatom 196 192 5 0 0 0 - - -;
#X text 234 167 % peak;
#X text 234 191 % mean;
#X text 109 102 MASTER FADER;
#X text 195 148 CPU load meter;
#X text 130 238 0;
#X text 129 178 15;
#X text 128 139 ==;
#X text 128 120 30;
#X obj 181 448 r dsp_run;
#X connect 0 0 27 0;
#X connect 0 1 26 0;
#X connect 1 0 0 0;
#X connect 2 0 3 0;
#X connect 3 0 4 0;
#X connect 3 0 5 0;
#X connect 4 0 8 0;
#X connect 5 0 6 0;
#X connect 6 0 7 0;
#X connect 6 0 11 1;
#X connect 6 0 12 1;
#X connect 7 0 23 0;
#X connect 11 0 10 0;
#X connect 11 0 18 0;
#X connect 12 0 10 1;
#X connect 12 0 18 0;
#X connect 13 0 11 0;
#X connect 14 0 12 0;
#X connect 15 0 13 0;
#X connect 16 0 14 0;
#X connect 19 0 20 0;
#X connect 20 0 18 0;
#X connect 21 0 22 0;
#X connect 22 0 9 0;
#X connect 23 0 24 0;
#X connect 24 0 21 0;
#X connect 24 1 9 0;
#X connect 36 0 19 0;
#X coords 0 -1 1 1 200 180 2 100 100;
