#N canvas 227 47 773 633 10;
#X obj 273 77 dsp;
#X obj 197 121 tgl 15 1 dsp_run dsp_tgl empty 8 -8 0 10 -86277 -257985
-258113 1 1;
#X obj 111 122 vsl 15 128 0 100 0 0 empty mst_fad empty 0 -9 0 10 -262144
-1 -1 10160 1;
#X floatatom 111 259 5 0 100 0 - - -;
#X msg 304 325 set \$1;
#X floatatom 261 351 5 0 0 0 - - -;
#X obj 283 389 != 0;
#X obj 280 503 s dsp_tgl;
#X obj 25 549 dac~ 1 2;
#X obj 30 430 *~;
#X obj 104 429 *~;
#X obj 30 456 clip~ -1 1;
#X obj 104 455 clip~ -1 1;
#N canvas 0 22 450 278 (subpatch) 0;
#X array \$0-scopeL 256 float 0;
#X coords 0 1 255 -1 60 40 1 0 0;
#X restore 168 231 graph;
#X obj 181 476 tgl 15 0 empty empty empty 17 7 0 10 -262144 -1 -1 1
1;
#X obj 281 456 del 100;
#X msg 281 479 0;
#X obj 282 412 change;
#X obj 280 434 sel 0;
#X text 216 120 DSP ON/OFF;
#X floatatom 196 168 5 0 0 0 - - -;
#X floatatom 196 192 5 0 0 0 - - -;
#X text 234 167 % peak;
#X text 234 191 % mean;
#X text 109 102 MASTER FADER;
#X text 195 148 CPU load meter;
#X text 130 238 0;
#X text 128 139 ==;
#X obj 181 448 r dsp_run;
#X text 128 120 100;
#X text 129 178 50;
#X obj 261 327 / 100;
#X obj 152 575 tabwrite~ \$0-scopeR;
#N canvas 0 22 450 278 (subpatch) 0;
#X array \$0-scopeR 256 float 0;
#X coords 0 1 255 -1 60 40 1 0 0;
#X restore 228 231 graph;
#X obj 119 553 tabwrite~ \$0-scopeL;
#X obj 215 411 line~;
#X msg 215 389 \$1 20;
#X obj 304 352 s mst_fad;
#X obj 183 498 metro 20;
#X obj 253 551 s dsp_run_metro;
#X obj 32 317 inlet~;
#X obj 101 313 inlet~;
#X obj 323 111 taptempo;
#X obj 322 207 audioTest;
#X connect 0 0 21 0;
#X connect 0 1 20 0;
#X connect 1 0 0 0;
#X connect 2 0 3 0;
#X connect 3 0 4 0;
#X connect 3 0 31 0;
#X connect 4 0 37 0;
#X connect 5 0 6 0;
#X connect 5 0 36 0;
#X connect 6 0 17 0;
#X connect 9 0 11 0;
#X connect 10 0 12 0;
#X connect 11 0 8 0;
#X connect 11 0 34 0;
#X connect 12 0 8 1;
#X connect 12 0 32 0;
#X connect 14 0 38 0;
#X connect 15 0 16 0;
#X connect 16 0 7 0;
#X connect 17 0 18 0;
#X connect 18 0 15 0;
#X connect 18 1 7 0;
#X connect 28 0 14 0;
#X connect 31 0 5 0;
#X connect 35 0 9 1;
#X connect 35 0 10 1;
#X connect 36 0 35 0;
#X connect 38 0 32 0;
#X connect 38 0 34 0;
#X connect 38 0 39 0;
#X connect 40 0 9 0;
#X connect 41 0 10 0;
#X connect 43 0 9 0;
#X connect 43 1 10 0;
#X coords 0 -1 1 1 350 180 2 100 100;
