#N canvas 718 271 474 414 10;
#X obj 318 202 metro 1000;
#X obj 107 123 tgl 15 0 empty empty empty 17 7 0 10 -262144 -1 -1 0
1;
#X obj 166 213 osc~ 440;
#X obj 113 293 *~ 0;
#X obj 191 293 *~ 0;
#X obj 273 202 sel 0;
#X msg 275 224 0;
#X obj 317 226 tgl 15 0 empty empty empty 17 7 0 10 -262144 -1 -1 0
1;
#X obj 317 256 == 0;
#X obj 114 212 noise~;
#X obj 166 240 *~ 1;
#X obj 114 241 *~ 0;
#X obj 107 141 tgl 15 0 empty empty empty 17 7 0 10 -262144 -1 -1 0
1;
#X obj 226 175 == 0;
#X obj 274 177 t f f;
#X text 128 140 sine / noise;
#X text 105 102 AUDIO TEST;
#X text 127 121 start;
#X floatatom 169 122 5 0 0 0 - - -;
#X obj 174 47 loadbang;
#X msg 174 70 880;
#X obj 115 338 throw~ outL;
#X obj 191 337 throw~ outR;
#X connect 0 0 7 0;
#X connect 1 0 14 0;
#X connect 2 0 10 0;
#X connect 3 0 21 0;
#X connect 4 0 22 0;
#X connect 5 0 6 0;
#X connect 6 0 3 1;
#X connect 6 0 4 1;
#X connect 7 0 8 0;
#X connect 7 0 3 1;
#X connect 8 0 4 1;
#X connect 9 0 11 0;
#X connect 10 0 3 0;
#X connect 10 0 4 0;
#X connect 11 0 3 0;
#X connect 11 0 4 0;
#X connect 12 0 13 0;
#X connect 12 0 11 1;
#X connect 13 0 10 1;
#X connect 14 0 5 0;
#X connect 14 1 0 0;
#X connect 18 0 2 0;
#X connect 19 0 20 0;
#X connect 20 0 18 0;
#X coords 0 -1 1 1 110 60 2 100 100;
