#N canvas 523 75 657 567 10;
#X floatatom -136 143 5 0 0 0 key_repeat_interval - dp001;
#X floatatom -137 112 5 0 100 0 master_fader - mst_fad;
#X obj 126 167 qlist;
#X obj 185 202 print;
#X obj 182 178 r test;
#X obj 182 130 bng 15 250 50 0 empty empty empty 17 7 0 10 -262144
-1 -1;
#X msg 126 77 add \$0-test 100;
#X obj -87 82 r glbset_mst_fad;
#X obj -88 112 r glbset_key_rep_int;
#X obj 120 463 qlist;
#X msg 146 425 read ../data/global_settings.txt;
#X obj 118 391 t b b;
#X obj 116 327 loadbang;
#X obj 117 360 del 100;
#X obj 114 297 bng 15 250 50 0 empty empty empty 17 7 0 10 -262144
-1 -1;
#X obj 169 466 s log_info;
#X connect 4 0 3 0;
#X connect 5 0 2 0;
#X connect 6 0 2 0;
#X connect 7 0 1 0;
#X connect 8 0 0 0;
#X connect 10 0 9 0;
#X connect 10 0 15 0;
#X connect 11 0 9 0;
#X connect 11 1 10 0;
#X connect 12 0 13 0;
#X connect 13 0 11 0;
#X connect 14 0 12 0;
