#N canvas 685 105 531 556 10;
#X floatatom -154 133 5 0 0 1 key_repeat_interval - dp001;
#X obj -34 446 coll ../data/def_settings.txt;
#C restore;
#X floatatom -154 104 5 0 100 1 master_fader - mst_fad;
#X msg -35 411 dump;
#X obj 34 280 closebang;
#X msg 36 320 write ../data/def_settings.txt;
#X obj -100 75 route master_fader key_repeat_interval;
#X obj -36 481 send def_params;
#X obj -36 285 loadbang;
#X obj -35 318 del 100;
#X msg 54 362 set default parameters;
#X obj 53 393 s log_info;
#X obj -38 258 bng 15 250 50 0 empty empty empty 17 7 0 10 -262144
-1 -1;
#X obj -99 43 r def_params;
#X connect 1 0 7 0;
#X connect 3 0 1 0;
#X connect 4 0 5 0;
#X connect 5 0 1 0;
#X connect 6 0 2 0;
#X connect 6 1 0 0;
#X connect 8 0 9 0;
#X connect 9 0 3 0;
#X connect 9 0 10 0;
#X connect 10 0 11 0;
#X connect 12 0 8 0;
#X connect 13 0 6 0;
