#N canvas 685 105 531 556 10;
#X floatatom -137 168 5 0 0 0 key_repeat_interval - dp001;
#X obj -113 464 coll ../data/def_settings.txt;
#C restore;
#X floatatom -137 112 5 0 100 0 master_fader - mst_fad;
#X msg -114 429 dump;
#X obj -45 298 closebang;
#X msg -43 338 write ../data/def_settings.txt;
#X obj -115 499 send def_params;
#X obj -115 303 loadbang;
#X obj -114 336 del 100;
#X msg -25 380 set default parameters;
#X obj -26 411 s log_info;
#X obj -117 276 bng 15 250 50 0 empty empty empty 17 7 0 10 -262144
-1 -1;
#X obj 11 25 r def_params;
#X obj -67 72 route master_fader;
#X obj -72 134 route key_repeat_interval;
#X connect 1 0 6 0;
#X connect 3 0 1 0;
#X connect 4 0 5 0;
#X connect 5 0 1 0;
#X connect 7 0 8 0;
#X connect 8 0 3 0;
#X connect 8 0 9 0;
#X connect 9 0 10 0;
#X connect 11 0 7 0;
#X connect 12 0 13 0;
#X connect 12 0 14 0;
#X connect 13 0 2 0;
#X connect 14 0 0 0;
