#N canvas 265 208 520 374 10;
#X obj 55 53 inlet~;
#X obj 58 296 outlet~;
#X obj 108 116 hsl 60 10 0 1 0 0 empty empty empty -2 -8 0 10 -262144
-1 -1 0 1;
#X text 104 100 DRY;
#X text 149 99 WET;
#X floatatom 78 182 5 0 0 0 - - -;
#X floatatom 315 156 5 0 0 0 - - -;
#X obj 79 154 expr 1-$f1;
#X obj 217 55 inlet~;
#X text 56 23 original;
#X text 213 25 effected;
#X obj 213 295 outlet~;
#X obj 283 58 inlet~;
#X obj 368 55 inlet;
#X obj 376 295 outlet;
#X obj 57 230 *~;
#X obj 212 231 *~;
#X obj 278 234 *~;
#X obj 302 194 fx/toLine~ 20;
#X obj 78 204 fx/toLine~ 20;
#X connect 0 0 15 0;
#X connect 2 0 7 0;
#X connect 2 0 6 0;
#X connect 5 0 19 0;
#X connect 6 0 14 0;
#X connect 6 0 18 0;
#X connect 7 0 5 0;
#X connect 8 0 16 0;
#X connect 12 0 17 0;
#X connect 13 0 2 0;
#X connect 15 0 1 0;
#X connect 15 0 11 0;
#X connect 16 0 1 0;
#X connect 17 0 11 0;
#X connect 18 0 16 1;
#X connect 18 0 17 1;
#X connect 19 0 15 1;
#X coords 0 -1 1 1 75 30 2 100 100;
