#N canvas 167 153 533 519 10;
#X text 173 57 comment;
#X obj 160 75 r log_err;
#X obj 81 75 r log_info;
#X obj 235 75 r log_debug;
#X obj 393 296 bng 15 250 50 0 empty empty empty 17 7 0 10 -262144
-1 -1;
#N canvas 299 331 432 336 make_log_file 0;
#X obj 31 31 inlet;
#X obj 39 278 outlet;
#X obj 196 112 time;
#X obj 35 112 date GMT;
#X obj 37 154 sprintf symbol ../log/log_%d%.2d%d_%.2d%.2d%.2d.txt;
#X obj 32 66 t b b;
#X connect 0 0 5 0;
#X connect 2 0 4 3;
#X connect 2 1 4 4;
#X connect 2 2 4 5;
#X connect 3 0 4 0;
#X connect 3 1 4 1;
#X connect 3 2 4 2;
#X connect 4 0 1 0;
#X connect 5 0 3 0;
#X connect 5 1 2 0;
#X restore 394 322 pd make_log_file;
#X text 412 295 init;
#X obj 391 259 loadbang;
#X text 80 40 recieve each message;
#X msg 173 232 INFO;
#X obj 82 279 prepend;
#N canvas 112 235 450 300 get_time_stamp 0;
#X obj 71 34 inlet;
#X obj 73 228 outlet;
#X obj 120 114 time;
#X obj 73 82 t a b;
#X obj 73 159 sprintf add [%s:%.2d-%.2d-%.2d-%.2f];
#X connect 0 0 3 0;
#X connect 2 0 4 1;
#X connect 2 1 4 2;
#X connect 2 2 4 3;
#X connect 2 3 4 4;
#X connect 3 0 4 0;
#X connect 3 1 2 0;
#X connect 4 0 1 0;
#X restore 170 278 pd get_time_stamp;
#X msg 210 234 ERROR;
#X msg 261 235 DEBUG;
#X obj 80 163 t a b;
#X obj 83 419 print log;
#X obj 255 362 bng 15 250 50 0 empty empty empty 17 7 0 10 -262144
-1 -1;
#X msg 160 427 clear;
#X obj 160 161 t a b;
#X obj 237 161 t a b;
#X obj 222 471 qlist;
#X obj 276 436 prepend write;
#X msg 258 393 ../log/log_20130823_092430.txt;
#X obj 280 362 prepend set;
#X obj 82 312 t b a;
#X obj 343 75 inlet;
#X text 382 76 bang >> print log;
#X obj 344 108 bang;
#X msg 343 163 print;
#X text 317 413 current log file name;
#X connect 1 0 18 0;
#X connect 2 0 14 0;
#X connect 3 0 19 0;
#X connect 4 0 5 0;
#X connect 5 0 21 0;
#X connect 5 0 23 0;
#X connect 7 0 4 0;
#X connect 9 0 11 0;
#X connect 10 0 24 0;
#X connect 11 0 10 1;
#X connect 12 0 11 0;
#X connect 13 0 11 0;
#X connect 14 0 10 0;
#X connect 14 1 9 0;
#X connect 16 0 22 0;
#X connect 17 0 20 0;
#X connect 18 0 10 0;
#X connect 18 1 12 0;
#X connect 19 0 10 0;
#X connect 19 1 13 0;
#X connect 21 0 20 0;
#X connect 22 0 21 0;
#X connect 23 0 22 0;
#X connect 24 0 16 0;
#X connect 24 1 20 0;
#X connect 24 1 15 0;
#X connect 25 0 27 0;
#X connect 27 0 28 0;
#X connect 28 0 20 0;
