#N canvas 738 217 395 488 10;
#X text 108 41;
#X obj 95 59 r log_err;
#X obj 16 59 r log_info;
#X obj 170 59 r log_debug;
#X obj 203 431 coll;
#C restore;
#X obj 266 331 bng 15 250 50 0 empty empty empty 17 7 0 10 -262144
-1 -1;
#N canvas 299 331 432 336 make_log_file 0;
#X obj 31 31 inlet;
#X obj 39 278 outlet;
#X obj 196 112 time;
#X obj 35 112 date GMT;
#X obj 37 154 sprintf symbol ../log/log_%d%.2d%d_%.2d%.2d%.2d.txt;
#X obj 39 227 prepend write;
#X obj 32 66 t b b;
#X connect 0 0 6 0;
#X connect 2 0 4 3;
#X connect 2 1 4 4;
#X connect 2 2 4 5;
#X connect 3 0 4 0;
#X connect 3 1 4 1;
#X connect 3 2 4 2;
#X connect 4 0 5 0;
#X connect 5 0 1 0;
#X connect 6 0 3 0;
#X connect 6 1 2 0;
#X restore 267 371 pd make_log_file;
#X text 285 330 init;
#X obj 264 294 loadbang;
#X text 15 24 recieve each message;
#X msg 181 370 writeagain;
#X msg 108 216 INFO;
#X obj 17 263 prepend;
#N canvas 184 260 450 300 get_time_stamp 0;
#X obj 71 34 inlet;
#X obj 69 214 outlet;
#X obj 120 114 time;
#X obj 73 159 sprintf store [%s:%.2d-%.2d-%.2d-%.2f];
#X obj 73 82 t a b;
#X connect 0 0 4 0;
#X connect 2 0 3 1;
#X connect 2 1 3 2;
#X connect 2 2 3 3;
#X connect 2 3 3 4;
#X connect 3 0 1 0;
#X connect 4 0 3 0;
#X connect 4 1 2 0;
#X restore 105 262 pd get_time_stamp;
#X msg 145 218 ERROR;
#X msg 196 219 DEBUG;
#X obj 15 147 t a b;
#X obj 17 411 print log;
#X obj 180 348 bng 15 250 50 0 empty empty empty 17 7 0 10 -262144
-1 -1;
#X msg 128 411 clear;
#X obj 95 145 t a b;
#X obj 172 145 t a b;
#X connect 1 0 20 0;
#X connect 2 0 16 0;
#X connect 3 0 21 0;
#X connect 5 0 6 0;
#X connect 6 0 4 0;
#X connect 8 0 5 0;
#X connect 10 0 4 0;
#X connect 11 0 13 0;
#X connect 12 0 4 0;
#X connect 12 0 17 0;
#X connect 12 0 18 0;
#X connect 13 0 12 1;
#X connect 14 0 13 0;
#X connect 15 0 13 0;
#X connect 16 0 12 0;
#X connect 16 1 11 0;
#X connect 18 0 10 0;
#X connect 19 0 4 0;
#X connect 20 0 12 0;
#X connect 20 1 14 0;
#X connect 21 0 12 0;
#X connect 21 1 15 0;
