#N canvas 737 89 450 300 10;
#X obj 82 151 coll ../data/preset.txt;
#C restore;
#X msg 146 89 rewrite;
#X msg 204 90 read ../data/preset.txt;
#X obj 82 39 r to_preset;
#X obj 82 235 s from_preset;
#X connect 0 0 4 0;
#X connect 1 0 0 0;
#X connect 2 0 0 0;
#X connect 3 0 0 0;
