#N canvas 763 111 481 633 10;
#X obj 31 121 timer;
#X floatatom 32 144 10 0 0 0 - - -;
#X floatatom 29 328 5 0 0 0 - - -;
#X obj 31 26 key;
#X obj 31 50 sel 32;
#X obj 44 197 f;
#X obj 115 316 tgl 15 0 empty empty empty 17 7 0 10 -262144 -1 -1 0
1;
#X obj 112 288 r dsp_run;
#X obj 27 400 metro 500;
#X obj 29 171 t f b;
#X obj 30 229 -;
#X obj 30 254 abs;
#X obj 28 306 gate;
#X obj 29 278 < 50;
#X obj 147 370 t b f;
#X msg 146 395 60000;
#X obj 146 417 /;
#X floatatom 164 560 5 0 0 0 - - _#0-bpm;
#X obj 165 504 bng 15 250 50 0 empty empty empty 17 7 0 10 -204800
-4160 -1;
#X obj 106 527 tgl 50 0 empty empty empty 17 7 0 10 -13381 -257985
-1 0 1;
#X msg 29 457 1;
#X msg 58 456 0;
#X obj 57 431 del 200;
#X obj 95 398 / 2;
#X obj 32 97 t b b;
#X obj 219 452 soundfiler;
#N canvas 0 22 450 278 (subpatch) 0;
#X array metro 4608 float 2;
#X coords 0 1 4608 -1 200 140 1 0 0;
#X restore 215 252 graph;
#X obj 268 545 tabplay~ metro;
#X obj 188 505 tgl 15 0 empty empty empty 17 7 0 10 -262144 -1 -1 0
1;
#X obj 92 51 r \$0-m;
#X obj 161 475 r \$0-r;
#X obj 93 95 s \$0-r;
#X text 102 502 TAP TEMPO;
#X obj 267 504 gate;
#X obj 267 525 b;
#X obj 219 399 loadbang;
#X msg 219 424 read -resize ../data/click.aif metro;
#X obj 201 534 s \$0-m;
#X text 163 542 BPM;
#X text 183 523 comment;
#X obj 269 579 throw~ outL;
#X obj 344 580 throw~ outR;
#X connect 0 0 1 0;
#X connect 1 0 9 0;
#X connect 2 0 8 1;
#X connect 2 0 14 0;
#X connect 2 0 23 0;
#X connect 3 0 4 0;
#X connect 4 0 31 0;
#X connect 5 0 10 1;
#X connect 6 0 8 0;
#X connect 7 0 6 0;
#X connect 8 0 20 0;
#X connect 8 0 22 0;
#X connect 9 0 10 0;
#X connect 9 0 5 1;
#X connect 9 0 12 1;
#X connect 9 1 5 0;
#X connect 10 0 11 0;
#X connect 11 0 13 0;
#X connect 12 0 2 0;
#X connect 13 0 12 0;
#X connect 14 0 15 0;
#X connect 14 1 16 1;
#X connect 15 0 16 0;
#X connect 16 0 17 0;
#X connect 18 0 37 0;
#X connect 20 0 19 0;
#X connect 20 0 33 1;
#X connect 21 0 19 0;
#X connect 22 0 21 0;
#X connect 23 0 22 1;
#X connect 24 0 0 0;
#X connect 24 1 0 1;
#X connect 27 0 40 0;
#X connect 27 0 41 0;
#X connect 28 0 33 0;
#X connect 29 0 24 0;
#X connect 30 0 18 0;
#X connect 33 0 34 0;
#X connect 34 0 27 0;
#X connect 35 0 36 0;
#X connect 36 0 25 0;
#X coords 0 -1 1 1 110 85 2 100 500;
