#N canvas 120 50 693 658 10;
#X obj 76 31 key;
#X obj 93 387 tgl 50 0 empty empty empty 17 7 0 10 -260097 -4034 -159808
0 1;
#X floatatom 77 105 5 0 0 0 - - -;
#X obj 78 150 sel 49 50 51 52 53 54 55 56 57 48;
#X text 101 129 KEY 1 - 9 & 0;
#X obj 150 387 tgl 50 0 empty empty empty 17 7 0 10 -260097 -4034 -159808
0 1;
#X obj 207 387 tgl 50 0 empty empty empty 17 7 0 10 -260097 -4034 -159808
0 1;
#X obj 94 331 tgl 50 0 empty empty empty 17 7 0 10 -260097 -4034 -159808
0 1;
#X obj 151 331 tgl 50 0 empty empty empty 17 7 0 10 -260097 -4034 -159808
0 1;
#X obj 208 331 tgl 50 0 empty empty empty 17 7 0 10 -260097 -4034 -159808
0 1;
#X obj 94 275 tgl 50 0 empty empty empty 17 7 0 10 -260097 -4034 -159808
0 1;
#X obj 151 275 tgl 50 0 empty empty empty 17 7 0 10 -260097 -4034 -159808
0 1;
#X obj 208 275 tgl 50 0 empty empty empty 17 7 0 10 -260097 -4034 -159808
0 1;
#X obj 93 443 tgl 50 0 empty empty empty 17 7 0 10 -260097 -4034 -159808
0 1;
#X obj 76 198 ../keytoggle;
#X obj 119 198 ../keytoggle;
#X obj 160 197 ../keytoggle;
#X obj 198 197 ../keytoggle;
#X obj 239 197 ../keytoggle;
#X obj 277 197 ../keytoggle;
#X obj 318 196 ../keytoggle;
#X obj 356 196 ../keytoggle;
#X obj 397 194 ../keytoggle;
#X obj 435 194 ../keytoggle;
#X obj 60 519 change;
#X obj 106 519 change;
#X obj 157 520 change;
#X obj 203 520 change;
#X obj 250 520 change;
#X obj 62 608 prepend tenkey;
#X msg 60 545 0 \$1;
#X obj 132 29 tgl 15 0 empty empty empty 17 7 0 10 -262144 -1 -1 0
1;
#X obj 76 70 spigot;
#X msg 105 545 1 \$1;
#X msg 157 545 2 \$1;
#X msg 203 545 3 \$1;
#X msg 251 544 4 \$1;
#X obj 61 634 outlet;
#X connect 0 0 32 0;
#X connect 1 0 24 0;
#X connect 2 0 3 0;
#X connect 3 0 14 0;
#X connect 3 1 15 0;
#X connect 3 2 16 0;
#X connect 3 3 17 0;
#X connect 3 4 18 0;
#X connect 3 5 19 0;
#X connect 3 6 20 0;
#X connect 3 7 21 0;
#X connect 3 8 22 0;
#X connect 3 9 23 0;
#X connect 5 0 25 0;
#X connect 6 0 26 0;
#X connect 7 0 27 0;
#X connect 8 0 28 0;
#X connect 14 0 1 0;
#X connect 15 0 5 0;
#X connect 16 0 6 0;
#X connect 17 0 7 0;
#X connect 18 0 8 0;
#X connect 19 0 9 0;
#X connect 20 0 10 0;
#X connect 21 0 11 0;
#X connect 22 0 12 0;
#X connect 23 0 13 0;
#X connect 24 0 30 0;
#X connect 25 0 33 0;
#X connect 26 0 34 0;
#X connect 27 0 35 0;
#X connect 28 0 36 0;
#X connect 29 0 37 0;
#X connect 30 0 29 0;
#X connect 31 0 32 1;
#X connect 32 0 2 0;
#X connect 33 0 29 0;
#X connect 34 0 29 0;
#X connect 35 0 29 0;
#X connect 36 0 29 0;
#X coords 0 658 1 657 200 60 0;
