#N canvas 423 66 720 535 10;
#X obj 83 43 inlet~;
#X obj 81 495 outlet~;
#X obj 78 403 +~;
#X obj 78 440 *~ 0.3;
#X obj 116 270 osc~ 5;
#X obj 116 297 *~ 6;
#X obj 116 323 +~ 5;
#X obj 116 349 vd~ \$0-chorus;
#X obj 108 80 delwrite~ \$0-chorus 30;
#X obj 208 270 osc~ 5;
#X obj 208 297 *~ 6;
#X obj 208 323 +~ 5;
#X obj 208 349 vd~ \$0-chorus;
#X obj 303 272 osc~ 5;
#X obj 303 299 *~ 6;
#X obj 303 325 +~ 5;
#X obj 303 351 vd~ \$0-chorus;
#X floatatom 114 223 5 0 0 0 - - -;
#X floatatom 151 223 5 0 0 0 - - -;
#X floatatom 208 229 5 0 0 0 - - -;
#X floatatom 245 229 5 0 0 0 - - -;
#X floatatom 302 229 5 0 0 0 - - -;
#X floatatom 339 229 5 0 0 0 - - -;
#X floatatom 304 133 5 0 0 0 - - -;
#X floatatom 389 133 5 0 0 0 - - -;
#X obj 304 49 inlet;
#X obj 391 53 inlet;
#X obj 452 76 \$1 \$2;
#X obj 452 101 unpack 0 0;
#X obj 452 52 loadbang;
#X text 390 24 depth;
#X text 302 26 freq;
#X obj 210 198 * 0.6;
#X obj 303 193 * 0.2;
#X obj 341 192 * 0.8;
#X obj 153 193 * 0.2;
#X obj 248 197 * 0.4;
#X obj 114 194 * 0.9;
#X connect 0 0 8 0;
#X connect 0 0 2 0;
#X connect 2 0 3 0;
#X connect 3 0 1 0;
#X connect 4 0 5 0;
#X connect 5 0 6 0;
#X connect 6 0 7 0;
#X connect 7 0 2 1;
#X connect 9 0 10 0;
#X connect 10 0 11 0;
#X connect 11 0 12 0;
#X connect 12 0 2 1;
#X connect 13 0 14 0;
#X connect 14 0 15 0;
#X connect 15 0 16 0;
#X connect 16 0 2 1;
#X connect 17 0 4 0;
#X connect 18 0 5 1;
#X connect 19 0 9 0;
#X connect 20 0 10 1;
#X connect 21 0 13 0;
#X connect 22 0 14 1;
#X connect 23 0 32 0;
#X connect 23 0 33 0;
#X connect 23 0 37 0;
#X connect 24 0 34 0;
#X connect 24 0 35 0;
#X connect 24 0 36 0;
#X connect 25 0 23 0;
#X connect 26 0 24 0;
#X connect 27 0 28 0;
#X connect 28 0 23 0;
#X connect 28 1 24 0;
#X connect 29 0 27 0;
#X connect 32 0 19 0;
#X connect 33 0 21 0;
#X connect 34 0 22 0;
#X connect 35 0 18 0;
#X connect 36 0 20 0;
#X connect 37 0 17 0;
