#N canvas 659 241 715 475 10;
#X obj 257 56 inlet~;
#X obj 257 270 outlet~;
#X obj 296 152 hip~ 20;
#X obj 296 192 lop~ 20000;
#X obj 257 105 spigot~;
#X obj 107 163 _f eq_highcut;
#X obj 107 198 _f eq_lowcut;
#X text 106 104 Filter EQ;
#X obj 107 128 _t eq_tgl;
#X connect 0 0 4 0;
#X connect 2 0 3 0;
#X connect 3 0 1 0;
#X connect 4 0 1 0;
#X connect 4 1 2 0;
#X connect 5 0 2 1;
#X connect 6 0 3 1;
#X connect 8 0 4 1;
#X coords 0 -1 1 1 100 140 2 100 100;
