#N canvas 727 75 376 497 10;
#X obj 35 20 inlet~;
#X obj 58 328 line~;
#X msg 58 305 \$1 20;
#X obj 34 354 *~;
#X obj 35 428 outlet~;
#X obj -23 21 inlet;
#X obj 96 20 inlet~;
#X obj 121 331 line~;
#X msg 121 308 \$1 20;
#X obj 97 357 *~;
#X obj 97 425 outlet~;
#X obj 131 152 vsl 28 80 0 1 0 0 empty empty empty 0 -9 0 10 -262144
-1 -1 7900 1;
#X floatatom 131 237 4 0 0 0 - - -;
#X obj 130 255 indicader;
#X obj -25 426 outlet;
#X connect 0 0 3 0;
#X connect 1 0 3 1;
#X connect 2 0 1 0;
#X connect 3 0 4 0;
#X connect 3 0 13 0;
#X connect 5 0 11 0;
#X connect 6 0 9 0;
#X connect 7 0 9 1;
#X connect 8 0 7 0;
#X connect 9 0 10 0;
#X connect 9 0 13 0;
#X connect 11 0 12 0;
#X connect 12 0 14 0;
#X connect 12 0 2 0;
#X connect 12 0 8 0;
#X coords 0 -1 1 1 30 120 2 130 150;
