#N canvas 168 111 358 322 10;
#X obj 51 57 inlet~;
#X obj 51 261 outlet~;
#X obj 122 261 outlet~;
#X floatatom 155 86 5 0 0 0 - - -;
#X obj 14 15 cnv 15 35 35 empty empty mono_to_panning 20 12 0 14 -4034
-66577 0;
#X obj 155 58 inlet;
#X obj 155 110 osc~;
#X obj 51 236 *~;
#X obj 122 235 *~;
#X floatatom 228 229 5 0 0 0 - - -;
#X obj 227 260 outlet;
#X obj 204 58 \$1;
#X obj 204 33 loadbang;
#X obj 228 204 snapshot~;
#X obj 229 170 bang~;
#X obj 156 134 +~ 1;
#X obj 156 157 *~ 0.5;
#X obj 70 215 +~ 1;
#X obj 71 195 *~ -1;
#X connect 0 0 7 0;
#X connect 0 0 8 0;
#X connect 3 0 6 0;
#X connect 5 0 3 0;
#X connect 6 0 15 0;
#X connect 7 0 1 0;
#X connect 8 0 2 0;
#X connect 9 0 10 0;
#X connect 11 0 3 0;
#X connect 12 0 11 0;
#X connect 13 0 9 0;
#X connect 14 0 13 0;
#X connect 15 0 16 0;
#X connect 16 0 13 0;
#X connect 16 0 8 1;
#X connect 16 0 18 0;
#X connect 17 0 7 1;
#X connect 18 0 17 0;
