#N canvas 273 211 310 371 10;
#X obj 66 25 inlet~;
#X obj 99 69 delwrite~ \$0-chorus 50;
#X obj 102 219 vd~ \$0-chorus;
#X obj 63 256 +~;
#X obj 63 286 outlet~;
#X obj 102 191 +~ 10;
#X floatatom 103 117 5 0 0 1 freq - -;
#X obj 103 143 osc~ 5;
#X floatatom 167 117 5 0 0 1 depth - -;
#X text 101 100 chorus vibrato;
#X obj 103 169 *~ 5;
#X obj 126 26 inlet;
#X obj 181 25 inlet;
#X connect 0 0 1 0;
#X connect 0 0 3 0;
#X connect 2 0 3 1;
#X connect 3 0 4 0;
#X connect 5 0 2 0;
#X connect 6 0 7 0;
#X connect 7 0 10 0;
#X connect 8 0 10 1;
#X connect 10 0 5 0;
#X connect 11 0 6 0;
#X connect 12 0 8 0;
#X coords 0 -1 1 1 130 35 2 100 100;
