#N canvas 256 179 855 428 10;
#X obj 461 -93 inlet;
#X obj -26 -69 inlet~;
#X floatatom 81 85 5 0 0 0 width #0-width_set #0-width;
#X obj 5 5 ../toggle~;
#X floatatom 80 58 5 0 0 0 lfo #0-lfo_set #0-lfo;
#X obj 147 -53 r \$0-lfo;
#X obj 219 -54 r \$0-width;
#X obj 503 -93 inlet;
#X obj 472 155 r \$0-lfo;
#X obj 514 182 r \$0-width;
#X obj 605 -76 route 0 1 2 3;
#X obj 605 -102 r \$0-preset;
#X obj 431 251 s \$0-preset;
#X obj 431 129 r \$0-lv;
#X obj 15 270 outlet~;
#X obj 72 270 outlet~;
#X obj 4 76 fx_level;
#X obj 41 6 cnv 15 70 30 empty empty VIVRATE 3 12 0 14 -262130 -159808
0;
#X obj -114 268 s \$0-lv;
#X obj 417 -94 inlet;
#X obj 502 -10 s \$0-lfo_set;
#X obj 596 -10 s \$0-width_set;
#X obj -114 -66 r \$0-lv_set;
#X obj 421 -8 s \$0-lv_set;
#X obj 68 119 vibrate;
#X obj 26 -73 inlet;
#X obj 431 221 preset_manager preset/myVibrate2.txt;
#X obj 13 246 *~;
#X obj 70 244 *~;
#X obj -80 178 toLine~ 20;
#X obj -80 151 != 1;
#X floatatom 218 83 5 0 0 0 - - -;
#X obj 129 130 pingpong_delay 500 0.5;
#X obj 217 55 r tempo_interval;
#X connect 0 0 20 0;
#X connect 1 0 3 0;
#X connect 3 0 24 0;
#X connect 3 1 30 0;
#X connect 5 0 24 1;
#X connect 6 0 24 2;
#X connect 7 0 21 0;
#X connect 8 0 26 1;
#X connect 9 0 26 2;
#X connect 10 0 23 0;
#X connect 10 1 20 0;
#X connect 10 2 21 0;
#X connect 11 0 10 0;
#X connect 13 0 26 0;
#X connect 16 0 18 0;
#X connect 16 1 27 0;
#X connect 16 2 28 0;
#X connect 19 0 23 0;
#X connect 22 0 16 0;
#X connect 24 0 32 0;
#X connect 25 0 3 1;
#X connect 26 0 12 0;
#X connect 27 0 14 0;
#X connect 28 0 15 0;
#X connect 29 0 27 1;
#X connect 29 0 28 1;
#X connect 30 0 29 0;
#X connect 31 0 32 1;
#X connect 32 0 16 1;
#X connect 32 1 16 2;
#X connect 33 0 31 0;
#X coords 0 -1 1 1 120 200 2 0 0;
