#N canvas 546 103 422 516 10;
#X obj 22 62 inlet~;
#X obj 28 407 outlet~;
#X floatatom 162 113 5 0 0 0 - - -;
#X obj 162 59 inlet;
#X obj 243 83 \$1;
#X obj 240 59 loadbang;
#X obj 162 194 >~ 0;
#X obj 162 164 osc~;
#X obj 26 269 *~;
#X connect 0 0 8 0;
#X connect 2 0 7 0;
#X connect 3 0 2 0;
#X connect 4 0 2 0;
#X connect 5 0 4 0;
#X connect 6 0 8 1;
#X connect 7 0 6 0;
#X connect 8 0 1 0;
