#N canvas 467 372 450 300 10;
#X floatatom 101 118 13 0 0 0 - - -;
#X obj 80 58 inlet;
#X obj 78 165 outlet;
#X obj 215 55 t b f;
#X obj 215 87 delay 100;
#X msg 215 124 write settings.csv;
#X obj 215 179 coll settings.csv;
#C restore;
#X obj 341 89 prepend \$1;
#X obj 341 126 prepend store;
#X connect 0 0 2 0;
#X connect 0 0 3 0;
#X connect 1 0 0 0;
#X connect 3 0 4 0;
#X connect 3 1 7 0;
#X connect 4 0 5 0;
#X connect 5 0 6 0;
#X connect 6 0 0 0;
#X connect 7 0 8 0;
#X connect 8 0 6 0;
#X coords 0 -1 1 1 85 35 1 100 100;
