#N canvas 285 357 450 300 10;
#X obj 80 58 inlet;
#X obj 78 165 outlet;
#X obj 215 55 t b f;
#X obj 215 87 delay 100;
#X msg 215 124 write settings.csv;
#X obj 215 179 coll settings.csv;
#C restore;
#X obj 341 89 prepend \$1;
#X obj 341 126 prepend store;
#X obj 101 119 tgl 15 0 empty empty empty 17 7 0 10 -262144 -1 -1 0
1;
#X connect 0 0 8 0;
#X connect 2 0 3 0;
#X connect 2 1 6 0;
#X connect 3 0 4 0;
#X connect 4 0 5 0;
#X connect 5 0 8 0;
#X connect 6 0 7 0;
#X connect 7 0 5 0;
#X connect 8 0 1 0;
#X connect 8 0 2 0;
#X coords 0 -1 1 1 85 35 1 100 100;
