#N canvas 570 78 657 567 10;
#X floatatom 144 169 5 0 0 0 key_repeat_interval - dp001;
#X floatatom 143 138 5 0 100 0 master_fader - mst_fad;
#X obj 314 434 textfile;
#X msg 395 375 read ../data/global_settings.txt;
#X obj 254 47 r global_settings;
#X obj 406 471 s global_settings;
#X obj 188 95 route master_fader;
#X obj 191 138 route key_repeat_interval;
#X obj 307 340 t b b;
#X obj 305 276 loadbang;
#X obj 306 309 del 100;
#X obj 303 246 bng 15 250 50 0 empty empty empty 17 7 0 10 -262144
-1 -1;
#X obj 377 435 t b a;
#X msg 310 375 rewind \, bang;
#X obj 429 434 s log_info;
#X connect 2 0 12 0;
#X connect 3 0 2 0;
#X connect 3 0 14 0;
#X connect 4 0 6 0;
#X connect 4 0 7 0;
#X connect 6 0 1 0;
#X connect 7 0 0 0;
#X connect 8 0 13 0;
#X connect 8 1 3 0;
#X connect 9 0 10 0;
#X connect 10 0 8 0;
#X connect 11 0 9 0;
#X connect 12 0 2 0;
#X connect 12 1 5 0;
#X connect 13 0 2 0;
