#N canvas 481 72 172 310 10;
#X floatatom 101 101 5 0 0 0 - dp001 -;
#X msg 52 164 1;
#X obj 28 93 t b b;
#X msg 12 164 0;
#X obj 10 128 del 400;
#X obj 27 54 inlet;
#X obj 34 214 outlet;
#X connect 0 0 4 1;
#X connect 1 0 6 0;
#X connect 2 0 4 0;
#X connect 2 1 1 0;
#X connect 3 0 6 0;
#X connect 4 0 3 0;
#X connect 5 0 2 0;
#X coords 0 -1 1 1 35 18 2 100 100;
